<?xml version="1.0" encoding="UTF-8" standalone="no"?>
<!-- Created with Inkscape (http://www.inkscape.org/) -->

<svg
   width="160.24078mm"
   height="160.24081mm"
   viewBox="0 0 160.24078 160.24081"
   version="1.1"
   id="svg1"
   xmlns="http://www.w3.org/2000/svg"
   xmlns:svg="http://www.w3.org/2000/svg">
  <defs
     id="defs1" />
  <g
     id="layer1"
     transform="translate(-24.879605,-158.83978)">
    <path
       style="fill:none;fill-opacity:1;stroke:#000000;stroke-width:0.606659;stroke-dasharray:none;stroke-opacity:1"
       d="M 184.81707,238.96019 A 79.817066,79.817066 0 0 1 105,318.77725 79.817066,79.817066 0 0 1 25.182934,238.96019 79.817066,79.817066 0 0 1 105,159.14312 a 79.817066,79.817066 0 0 1 79.81707,79.81707 z"
       id="path43" />
    <path
       id="path49"
       style="fill:none;stroke:#000000;stroke-width:0.6"
       d="m 111.81644,256.771 a 3.9711351,3.9711351 0 0 1 -3.97113,3.97113 3.9711351,3.9711351 0 0 1 -3.97114,-3.97113 3.9711351,3.9711351 0 0 1 3.97114,-3.97114 3.9711351,3.9711351 0 0 1 3.97113,3.97114 z M 56.082516,204.93807 105.13801,253.99356 M 64.532147,198.1387 105.17682,238.78338 M 64.532147,268.87582 V 198.1387 m 81.289343,70.23712 10e-6,-58.51188 m -40.64468,28.91944 40.64468,-40.64468" />
  </g>
</svg>
